<?xml version="1.0" encoding="utf-8"?>
<svg width="258" height="446" viewBox="0 0 258 446" fill="none" xmlns="http://www.w3.org/2000/svg">
  <g id="SingleElement">
    <rect id="Rectangle" width="258" height="287" fill="#000000" fill-rule="evenodd" transform="translate(0 80)" />
    <path d="M67.9922 245.372Q62.7891 259.505 51.5391 269.138Q40.2891 278.77 30.6562 282.216Q21.0234 285.661 13.2188 285.661Q-7.80469 285.661 -7.80469 269.278Q-7.80469 252.544 10.6875 239.044Q19.2656 232.716 29.3906 230.677Q30.7969 230.677 30.7969 231.872Q30.7969 232.435 30.2344 232.997Q23.0625 238.481 16.5234 250.013Q10.0547 261.474 10.0547 270.122Q10.0547 278.77 17.2969 278.77Q23.0625 278.77 28.6172 274.06Q34.2422 269.278 37.125 264.356L40.0078 259.786Q45.7734 250.575 49.6406 230.395Q53.5781 210.216 54.7031 194.677L55.6172 179.138Q55.6172 176.817 54.7031 176.817L53.5781 177.38L25.0312 210.849Q21.8672 214.575 20.7422 214.575Q19.2656 214.575 19.2656 212.536Q19.2656 208.81 21.3047 206.77L23.9062 203.606Q56.7422 166.763 61.3125 158.958Q65.6719 152.349 74.0391 147.427Q82.0547 142.856 93.0234 142.856Q95.9062 142.856 95.9062 145.177Q95.9062 146.583 93.5859 147.778Q92.7422 148.06 91.4062 149.044Q90.1406 150.028 86.8359 153.825Q83.5312 157.552 80.9297 162.474Q78.3281 167.325 76.2891 176.114Q74.3203 184.903 74.3203 195.52Q74.3203 228.638 67.9922 245.372ZM118.351 250.294Q84.6709 281.935 75.1787 281.935Q70.2568 281.935 70.2568 275.325Q70.2568 268.716 75.4599 256.06Q80.6631 243.333 85.7959 233.841L90.999 224.63Q112.866 186.31 124.116 169.645Q129.038 162.403 136.632 157.411Q144.296 152.349 150.905 152.349Q153.226 152.349 153.226 154.388Q153.226 155.794 151.186 159.872Q147.741 166.2 134.171 190.106Q120.671 214.013 118.069 218.864Q106.257 239.606 106.257 246.497Q106.257 249.099 108.015 249.099Q110.897 249.099 126.436 234.755Q138.53 222.591 158.429 199.88Q159.272 199.036 159.835 199.036Q160.397 199.036 160.397 200.161Q160.397 205.645 156.108 210.849Q134.804 234.403 118.351 250.294ZM156.671 135.966Q149.499 135.966 149.499 127.317Q149.499 119.231 155.546 111.075Q161.593 102.849 168.765 102.849Q177.413 102.849 177.413 112.622Q177.413 120.638 170.804 128.302Q164.194 135.966 156.671 135.966Z" fill="#FFFFFF" transform="translate(50 0)" />
  </g>
</svg>