<?xml version="1.0" encoding="utf-8"?>
<svg width="150" height="99" viewBox="0 0 150 99" fill="none" xmlns="http://www.w3.org/2000/svg">
  <g id="SingleElement">
    <path id="Rectangle" d="M140 0C145.524 0 150 4.47644 150 10L150 23C150 28.5236 145.524 33 140 33L10 33C4.47644 33 0 28.5236 0 23L0 10C0 4.47644 4.47644 0 10 0L140 0Z" fill="#FF5252" transform="matrix(1 0 0 1 0 66)" />
    <path id="Rectangle" d="M140 0C145.524 0 150 4.47644 150 10L150 23C150 28.5236 145.524 33 140 33L10 33C4.47644 33 0 28.5236 0 23L0 10C0 4.47644 4.47644 0 10 0L140 0Z" fill="#FF5252" transform="matrix(1 0 0 1 0 49)" />
    <path id="Rectangle" d="M140 0C145.523 0 150 4.47644 150 10L150 22.9999C150 28.5234 145.523 32.9999 140 32.9999L10 32.9999C4.47644 32.9999 0 28.5234 0 22.9999L0 10C0 4.47644 4.47644 0 10 0L140 0Z" fill="#FFFFFF" transform="scale(1 1)" />
    <path id="Rectangle" d="M140 0C145.523 0 150 4.47644 150 10L150 22.9999C150 28.5234 145.523 32.9999 140 32.9999L10 32.9999C4.47644 32.9999 0 28.5234 0 22.9999L0 10C0 4.47644 4.47644 0 10 0L140 0Z" fill="#FFFFFF" transform="matrix(1 0 0 1 0 16)" />
    <rect id="Rectangle" width="150" height="33" fill="#0039A6" fill-rule="evenodd" transform="translate(0 33)" />
  </g>
</svg>